<svg xmlns="http://www.w3.org/2000/svg" viewBox="0 0 620 180" role="img" aria-labelledby="title">
  <title id="title">Sysco</title>
  <rect width="620" height="180" fill="none"/>
  <path fill="#0088c6" d="M75 139c-27 0-50-7-68-19l19-41c15 10 31 16 49 16 12 0 20-4 20-12 0-23-82-10-82-66 0-32 28-55 72-55 22 0 42 5 58 15l-18 40c-13-8-27-12-42-12-14 0-21 5-21 12 0 23 83 9 83 65 0 32-29 57-70 57Z"/>
  <path fill="#0088c6" d="M178 176h-52l48-151h53l-49 151Z"/>
  <path fill="#0088c6" d="M276 139c-27 0-49-7-67-19l18-39c15 10 31 15 49 15 12 0 20-4 20-11 0-22-80-9-80-61 0-32 27-54 69-54 21 0 40 4 56 13l-17 39c-13-7-26-10-41-10-13 0-20 4-20 11 0 21 80 8 80 61 0 33-29 55-67 55Z"/>
  <path fill="#0088c6" d="M421 139c-49 0-82-31-82-76 0-54 42-94 100-94 27 0 49 9 62 26l-34 31c-8-9-18-14-32-14-27 0-46 21-46 48 0 22 15 36 38 36 13 0 25-4 36-14l28 33c-17 16-42 24-70 24Z"/>
  <path fill="#0088c6" d="M510 139c-47 0-79-29-79-74 0-54 42-96 99-96 47 0 79 30 79 75 0 54-42 95-99 95Zm5-43c24 0 42-22 42-48 0-22-13-36-32-36-24 0-42 22-42 48 0 22 13 36 32 36Z"/>
  <path fill="#6fbf45" d="M187 25c33 13 56 42 65 81-17-25-36-45-59-61l-6-20Z"/>
</svg>
